<svg width="24" height="25" viewBox="0 0 24 25" fill="none" xmlns="http://www.w3.org/2000/svg">
<path d="M8.24996 10.9229C8.24996 9.63428 9.36924 8.58961 10.7499 8.58961C12.1307 8.58961 13.2499 9.63428 13.2499 10.9229C13.2499 12.2116 12.1307 13.2563 10.7499 13.2563C9.36924 13.2563 8.24996 12.2116 8.24996 10.9229ZM10.7499 9.75628C10.0596 9.75628 9.49996 10.2786 9.49996 10.9229C9.49996 11.5673 10.0596 12.0896 10.7499 12.0896C11.4403 12.0896 11.9999 11.5673 11.9999 10.9229C11.9999 10.2786 11.4403 9.75628 10.7499 9.75628ZM3.87499 5.0896C2.83946 5.0896 2 5.8731 2 6.8396V15.0063C2 15.9728 2.83946 16.7563 3.87499 16.7563H17.6249C18.6604 16.7563 19.4999 15.9728 19.4999 15.0063V6.8396C19.4999 5.8731 18.6604 5.0896 17.6249 5.0896H3.87499ZM3.24999 6.8396C3.24999 6.51744 3.52981 6.25627 3.87499 6.25627H5.74998V7.42294C5.74998 8.06727 5.19034 8.58961 4.49998 8.58961L3.24999 8.58961V6.8396ZM3.24999 9.75628L4.49998 9.75628C5.88069 9.75628 6.99997 8.7116 6.99997 7.42294V6.25627H14.4999V7.42294C14.4999 8.7116 15.6192 9.75628 16.9999 9.75628L18.2499 9.75628V12.0896H16.9999C15.6192 12.0896 14.4999 13.1343 14.4999 14.423V15.5896H6.99997V14.423C6.99997 13.1343 5.88069 12.0896 4.49999 12.0896H3.24999V9.75628ZM15.7499 6.25627H17.6249C17.9701 6.25627 18.2499 6.51744 18.2499 6.8396V8.58961L16.9999 8.58961C16.3096 8.58961 15.7499 8.06727 15.7499 7.42294V6.25627ZM18.2499 13.2563V15.0063C18.2499 15.3285 17.9701 15.5896 17.6249 15.5896H15.7499V14.423C15.7499 13.7786 16.3096 13.2563 16.9999 13.2563H18.2499ZM5.74998 15.5896H3.87499C3.52981 15.5896 3.24999 15.3285 3.24999 15.0063V13.2563H4.49999C5.19034 13.2563 5.74998 13.7786 5.74998 14.423V15.5896ZM20.75 15.0063C20.75 16.6171 19.3509 17.9229 17.625 17.9229H4.6068C4.86419 18.6026 5.55871 19.0896 6.37509 19.0896H17.625C20.0413 19.0896 22 17.2614 22 15.0063V9.17291C22 8.41095 21.4783 7.76272 20.75 7.52249V15.0063Z" fill="white"/>
</svg>
