<svg width="24" height="25" viewBox="0 0 24 25" fill="none" xmlns="http://www.w3.org/2000/svg">
<path d="M17 4.0896C16.4477 4.0896 16 3.64188 16 3.0896C16 2.53731 16.4477 2.0896 17 2.0896H21C21.5523 2.0896 22 2.53731 22 3.0896V7.0896C22 7.64188 21.5523 8.0896 21 8.0896C20.4477 8.0896 20 7.64188 20 7.0896V5.50381L14.2071 11.2967C13.8166 11.6872 13.1834 11.6872 12.7929 11.2967L10 8.50381L4.70711 13.7967C4.31658 14.1872 3.68342 14.1872 3.29289 13.7967C2.90237 13.4062 2.90237 12.773 3.29289 12.3825L9.29289 6.38249C9.48043 6.19496 9.73478 6.0896 10 6.0896C10.2652 6.0896 10.5196 6.19496 10.7071 6.38249L13.5 9.17539L18.5858 4.0896H17ZM5 18.0896V21.0896C5 21.6419 4.55228 22.0896 4 22.0896C3.44772 22.0896 3 21.6419 3 21.0896V18.0896C3 17.5373 3.44772 17.0896 4 17.0896C4.55228 17.0896 5 17.5373 5 18.0896ZM10 14.0896C10 13.5373 9.55228 13.0896 9 13.0896C8.44772 13.0896 8 13.5373 8 14.0896V21.0896C8 21.6419 8.44772 22.0896 9 22.0896C9.55228 22.0896 10 21.6419 10 21.0896V14.0896ZM14 15.0896C14.5523 15.0896 15 15.5373 15 16.0896V21.0896C15 21.6419 14.5523 22.0896 14 22.0896C13.4477 22.0896 13 21.6419 13 21.0896V16.0896C13 15.5373 13.4477 15.0896 14 15.0896ZM20 11.0896C20 10.5373 19.5523 10.0896 19 10.0896C18.4477 10.0896 18 10.5373 18 11.0896V21.0896C18 21.6419 18.4477 22.0896 19 22.0896C19.5523 22.0896 20 21.6419 20 21.0896V11.0896Z" fill="white"/>
</svg>
