<svg width="18" height="19" viewBox="0 0 18 19" fill="none" xmlns="http://www.w3.org/2000/svg">
<path d="M6.93739 6.08957H1.31244C0.588725 6.08957 0 5.50084 0 4.77698V1.40199C0 0.678267 0.588725 0.0895386 1.31244 0.0895386H6.93739C7.66125 0.0895386 8.24997 0.678267 8.24997 1.40199V4.77698C8.24997 5.50084 7.66125 6.08957 6.93739 6.08957ZM1.31244 1.21454C1.20903 1.21454 1.12499 1.29858 1.12499 1.40199V4.77698C1.12499 4.88053 1.20903 4.96457 1.31244 4.96457H6.93739C7.04094 4.96457 7.12498 4.88053 7.12498 4.77698V1.40199C7.12498 1.29858 7.04094 1.21454 6.93739 1.21454H1.31244Z" fill="white"/>
<path d="M6.93739 18.0896H1.31244C0.588725 18.0896 0 17.5008 0 16.7771V8.90213C0 8.17827 0.588725 7.58954 1.31244 7.58954H6.93739C7.66125 7.58954 8.24997 8.17827 8.24997 8.90213V16.7771C8.24997 17.5008 7.66125 18.0896 6.93739 18.0896ZM1.31244 8.71454C1.20903 8.71454 1.12499 8.79858 1.12499 8.90213V16.7771C1.12499 16.8805 1.20903 16.9646 1.31244 16.9646H6.93739C7.04094 16.9646 7.12498 16.8805 7.12498 16.7771V8.90213C7.12498 8.79858 7.04094 8.71454 6.93739 8.71454H1.31244Z" fill="white"/>
<path d="M16.6875 18.0895H11.0626C10.3387 18.0895 9.75 17.5008 9.75 16.7771V13.4021C9.75 12.6782 10.3387 12.0895 11.0626 12.0895H16.6875C17.4112 12.0895 18 12.6782 18 13.4021V16.7771C18 17.5008 17.4112 18.0895 16.6875 18.0895V18.0895ZM11.0626 13.2145C10.959 13.2145 10.875 13.2985 10.875 13.4021V16.7771C10.875 16.8805 10.959 16.9645 11.0626 16.9645H16.6875C16.7909 16.9645 16.875 16.8805 16.875 16.7771V13.4021C16.875 13.2985 16.7909 13.2145 16.6875 13.2145H11.0626Z" fill="white"/>
<path d="M16.6875 10.5896H11.0626C10.3387 10.5896 9.75 10.0008 9.75 9.27697V1.40199C9.75 0.678267 10.3387 0.0895386 11.0626 0.0895386H16.6875C17.4112 0.0895386 18 0.678267 18 1.40199V9.27697C18 10.0008 17.4112 10.5896 16.6875 10.5896V10.5896ZM11.0626 1.21454C10.959 1.21454 10.875 1.29858 10.875 1.40199V9.27697C10.875 9.38052 10.959 9.46456 11.0626 9.46456H16.6875C16.7909 9.46456 16.875 9.38052 16.875 9.27697V1.40199C16.875 1.29858 16.7909 1.21454 16.6875 1.21454H11.0626Z" fill="white"/>
</svg>
