<svg width="24" height="25" viewBox="0 0 24 25" fill="none" xmlns="http://www.w3.org/2000/svg">
<path d="M4.25 4.0896C3.00736 4.0896 2 5.09696 2 6.3396V8.8396C2 10.0822 3.00736 11.0896 4.25 11.0896H6.75C7.99264 11.0896 9 10.0822 9 8.8396V6.3396C9 5.09696 7.99264 4.0896 6.75 4.0896H4.25ZM3.5 6.3396C3.5 5.92539 3.83579 5.5896 4.25 5.5896H6.75C7.16421 5.5896 7.5 5.92539 7.5 6.3396V8.8396C7.5 9.25381 7.16421 9.5896 6.75 9.5896H4.25C3.83579 9.5896 3.5 9.25381 3.5 8.8396V6.3396ZM11.25 5.0896C10.8358 5.0896 10.5 5.42539 10.5 5.8396C10.5 6.25381 10.8358 6.5896 11.25 6.5896H21.25C21.6642 6.5896 22 6.25381 22 5.8396C22 5.42539 21.6642 5.0896 21.25 5.0896H11.25ZM11.25 8.0896C10.8358 8.0896 10.5 8.42539 10.5 8.8396C10.5 9.25381 10.8358 9.5896 11.25 9.5896H18.25C18.6642 9.5896 19 9.25381 19 8.8396C19 8.42539 18.6642 8.0896 18.25 8.0896H11.25ZM4.25 13.0896C3.00736 13.0896 2 14.097 2 15.3396V17.8396C2 19.0822 3.00736 20.0896 4.25 20.0896H6.75C7.99264 20.0896 9 19.0822 9 17.8396V15.3396C9 14.097 7.99264 13.0896 6.75 13.0896H4.25ZM3.5 15.3396C3.5 14.9254 3.83579 14.5896 4.25 14.5896H6.75C7.16421 14.5896 7.5 14.9254 7.5 15.3396V17.8396C7.5 18.2538 7.16421 18.5896 6.75 18.5896H4.25C3.83579 18.5896 3.5 18.2538 3.5 17.8396V15.3396ZM11.25 14.0896C10.8358 14.0896 10.5 14.4254 10.5 14.8396C10.5 15.2538 10.8358 15.5896 11.25 15.5896H21.25C21.6642 15.5896 22 15.2538 22 14.8396C22 14.4254 21.6642 14.0896 21.25 14.0896H11.25ZM11.25 17.0896C10.8358 17.0896 10.5 17.4254 10.5 17.8396C10.5 18.2538 10.8358 18.5896 11.25 18.5896H18.25C18.6642 18.5896 19 18.2538 19 17.8396C19 17.4254 18.6642 17.0896 18.25 17.0896H11.25Z" fill="white"/>
</svg>
