<svg width="20" height="19" viewBox="0 0 20 19" fill="none" xmlns="http://www.w3.org/2000/svg">
<path d="M12.754 7.0896C13.7205 7.0896 14.504 7.8731 14.504 8.8396V13.5886C14.504 16.0744 12.4888 18.0896 10.003 18.0896C7.51712 18.0896 5.50193 16.0744 5.50193 13.5886V8.8396C5.50193 7.8731 6.28543 7.0896 7.25193 7.0896H12.754ZM12.754 8.5896H7.25193C7.11386 8.5896 7.00193 8.70153 7.00193 8.8396V13.5886C7.00193 15.246 8.34554 16.5896 10.003 16.5896C11.6604 16.5896 13.004 15.246 13.004 13.5886V8.8396C13.004 8.70153 12.8921 8.5896 12.754 8.5896ZM1.75 7.0896L5.13128 7.08866C4.78791 7.50407 4.56424 8.02206 4.51312 8.58979L1.75 8.5896C1.61193 8.5896 1.5 8.70153 1.5 8.8396V12.0884C1.5 13.4698 2.61984 14.5896 4.00124 14.5896C4.20123 14.5896 4.39574 14.5661 4.58216 14.5218C4.66687 15.0257 4.82156 15.5063 5.03487 15.9536C4.70577 16.0426 4.35899 16.0896 4.00124 16.0896C1.79142 16.0896 0 14.2982 0 12.0884V8.8396C0 7.8731 0.783502 7.0896 1.75 7.0896ZM14.8747 7.08866L18.25 7.0896C19.2165 7.0896 20 7.8731 20 8.8396V12.0896C20 14.2987 18.2091 16.0896 16 16.0896C15.6436 16.0896 15.298 16.043 14.9691 15.9555C15.184 15.5073 15.3388 15.0267 15.425 14.5227C15.6092 14.5666 15.8019 14.5896 16 14.5896C17.3807 14.5896 18.5 13.4703 18.5 12.0896V8.8396C18.5 8.70153 18.3881 8.5896 18.25 8.5896L15.4928 8.58979C15.4417 8.02206 15.218 7.50407 14.8747 7.08866ZM10 0.0895996C11.6569 0.0895996 13 1.43275 13 3.0896C13 4.74645 11.6569 6.0896 10 6.0896C8.34315 6.0896 7 4.74645 7 3.0896C7 1.43275 8.34315 0.0895996 10 0.0895996ZM16.5 1.0896C17.8807 1.0896 19 2.20889 19 3.5896C19 4.97031 17.8807 6.0896 16.5 6.0896C15.1193 6.0896 14 4.97031 14 3.5896C14 2.20889 15.1193 1.0896 16.5 1.0896ZM3.5 1.0896C4.88071 1.0896 6 2.20889 6 3.5896C6 4.97031 4.88071 6.0896 3.5 6.0896C2.11929 6.0896 1 4.97031 1 3.5896C1 2.20889 2.11929 1.0896 3.5 1.0896ZM10 1.5896C9.17157 1.5896 8.5 2.26117 8.5 3.0896C8.5 3.91803 9.17157 4.5896 10 4.5896C10.8284 4.5896 11.5 3.91803 11.5 3.0896C11.5 2.26117 10.8284 1.5896 10 1.5896ZM16.5 2.5896C15.9477 2.5896 15.5 3.03731 15.5 3.5896C15.5 4.14188 15.9477 4.5896 16.5 4.5896C17.0523 4.5896 17.5 4.14188 17.5 3.5896C17.5 3.03731 17.0523 2.5896 16.5 2.5896ZM3.5 2.5896C2.94772 2.5896 2.5 3.03731 2.5 3.5896C2.5 4.14188 2.94772 4.5896 3.5 4.5896C4.05228 4.5896 4.5 4.14188 4.5 3.5896C4.5 3.03731 4.05228 2.5896 3.5 2.5896Z" fill="white"/>
</svg>
