<svg width="24" height="25" viewBox="0 0 24 25" fill="none" xmlns="http://www.w3.org/2000/svg">
<path d="M4 6.33954C4 5.0969 5.00736 4.08954 6.25 4.08954H14.75C15.9926 4.08954 17 5.0969 17 6.33954V14.0895H20.5V17.3395C20.5 19.1345 19.0449 20.5895 17.25 20.5895H7.25C5.45507 20.5895 4 19.1345 4 17.3395V6.33954ZM17 15.5895V19.0895H17.25C18.2165 19.0895 19 18.306 19 17.3395V15.5895H17ZM15.5 19.0895V6.33954C15.5 5.92533 15.1642 5.58954 14.75 5.58954H6.25C5.83579 5.58954 5.5 5.92533 5.5 6.33954V17.3395C5.5 18.306 6.2835 19.0895 7.25 19.0895H15.5ZM7.00001 8.83954C7.00001 8.42533 7.3358 8.08954 7.75001 8.08954H13.25C13.6642 8.08954 14 8.42533 14 8.83954C14 9.25376 13.6642 9.58954 13.25 9.58954H7.75001C7.3358 9.58954 7.00001 9.25376 7.00001 8.83954ZM7.00001 12.3395C7.00001 11.9253 7.3358 11.5895 7.75001 11.5895H13.25C13.6642 11.5895 14 11.9253 14 12.3395C14 12.7538 13.6642 13.0895 13.25 13.0895H7.75001C7.3358 13.0895 7.00001 12.7538 7.00001 12.3395ZM7.00001 15.8395C7.00001 15.4253 7.3358 15.0895 7.75001 15.0895H10.25C10.6642 15.0895 11 15.4253 11 15.8395C11 16.2538 10.6642 16.5895 10.25 16.5895H7.75001C7.3358 16.5895 7.00001 16.2538 7.00001 15.8395Z" fill="white"/>
</svg>
