<svg width="24" height="25" viewBox="0 0 24 25" fill="none" xmlns="http://www.w3.org/2000/svg">
<path d="M17.2117 2.32683C17.3427 1.93389 17.1304 1.50912 16.7375 1.37808C16.3445 1.24704 15.9198 1.45935 15.7887 1.85229L15.0387 4.10128C14.9077 4.49422 15.12 4.91898 15.5129 5.05002C15.9059 5.18106 16.3306 4.96875 16.4617 4.57581L17.2117 2.32683ZM21.7803 2.30924C22.0732 2.60213 22.0732 3.07701 21.7803 3.3699L19.2803 5.8699C18.9874 6.16279 18.5126 6.16279 18.2197 5.8699C17.9268 5.57701 17.9268 5.10213 18.2197 4.80924L20.7197 2.30924C21.0126 2.01635 21.4874 2.01635 21.7803 2.30924ZM9.07629 4.40773C9.78611 2.93454 11.7547 2.63502 12.8706 3.83044L19.8769 11.3364C20.9679 12.5053 20.5809 14.401 19.119 15.0487L15.6991 16.5639C15.8932 17.0341 16.0003 17.5493 16.0003 18.0896C16.0003 20.2987 14.2095 22.0896 12.0003 22.0896C10.4048 22.0896 9.0275 21.1554 8.38545 19.8042L6.96799 20.4322C6.30531 20.7258 5.53118 20.5933 5.00386 20.096L3.56512 18.7392C2.99437 18.201 2.83795 17.3551 3.17848 16.6483L9.07629 4.40773ZM9.75795 19.1961C10.1662 20.0218 11.0169 20.5896 12.0003 20.5896C13.3811 20.5896 14.5003 19.4703 14.5003 18.0896C14.5003 17.7656 14.4387 17.4561 14.3266 17.172L9.75795 19.1961ZM11.774 4.85398C11.3781 4.42978 10.6795 4.53606 10.4276 5.05883L4.5298 17.2994C4.47304 17.4172 4.49912 17.5582 4.59425 17.648L6.03299 19.0048C6.12088 19.0876 6.24992 19.1097 6.36038 19.0608L18.5114 13.6773C19.0302 13.4475 19.1675 12.7747 18.7803 12.36L11.774 4.85398ZM19 8.33884C19 7.92462 19.3358 7.58884 19.75 7.58884H21.75C22.1642 7.58884 22.5 7.92462 22.5 8.33884C22.5 8.75305 22.1642 9.08884 21.75 9.08884H19.75C19.3358 9.08884 19 8.75305 19 8.33884Z" fill="white"/>
</svg>
