<svg width="24" height="25" viewBox="0 0 24 25" fill="none" xmlns="http://www.w3.org/2000/svg">
<path d="M10.5911 2.60163C11.4947 2.23533 12.5053 2.23533 13.4089 2.60163L20.9075 5.6416C21.5679 5.90933 22 6.55078 22 7.26339V16.9161C22 17.6287 21.5679 18.2702 20.9075 18.5379L13.4089 21.5779C12.5053 21.9442 11.4947 21.9442 10.5911 21.5779L3.09252 18.5379C2.43211 18.2702 2 17.6287 2 16.9161V7.26339C2 6.55078 2.43211 5.90933 3.09252 5.6416L10.5911 2.60163ZM12.8453 3.99174C12.3032 3.77196 11.6968 3.77196 11.1547 3.99174L9.24097 4.76756L16.7678 7.69466L19.437 6.66404L12.8453 3.99174ZM14.6911 8.49649L7.21472 5.58901L4.59029 6.65298L12.0013 9.53505L14.6911 8.49649ZM3.5 16.9161C3.5 17.0179 3.56173 17.1095 3.65607 17.1478L11.1547 20.1878C11.1863 20.2006 11.2183 20.2127 11.2503 20.224V10.8524L3.5 7.83841V16.9161ZM12.8453 20.1878L20.3439 17.1478C20.4383 17.1095 20.5 17.0179 20.5 16.9161V7.86154L12.7503 10.8538V20.2238C12.7822 20.2125 12.8139 20.2005 12.8453 20.1878Z" fill="white"/>
</svg>
