<svg width="24" height="25" viewBox="0 0 24 25" fill="none" xmlns="http://www.w3.org/2000/svg">
<path d="M12.3725 2.0896C13.1065 2.09806 13.8376 2.18286 14.554 2.34264C14.8668 2.41238 15.1007 2.67311 15.1362 2.99156L15.3064 4.51841C15.3834 5.21946 15.9753 5.75044 16.681 5.75118C16.8706 5.75148 17.0583 5.71198 17.2335 5.63443L18.6342 5.01916C18.9255 4.89119 19.2658 4.96096 19.4833 5.19322C20.4955 6.27424 21.2493 7.57075 21.688 8.98518C21.7826 9.29018 21.6738 9.62163 21.4167 9.8111L20.1752 10.7262C19.8211 10.9864 19.6119 11.3996 19.6119 11.8391C19.6119 12.2785 19.8211 12.6917 20.176 12.9525L21.4186 13.8679C21.6757 14.0573 21.7847 14.3888 21.6901 14.6939C21.2515 16.1081 20.4981 17.4045 19.4865 18.4857C19.2692 18.7179 18.9291 18.7879 18.6378 18.6602L17.2315 18.0441C16.8292 17.868 16.3671 17.8938 15.9869 18.1136C15.6067 18.3333 15.3536 18.7208 15.3053 19.1573L15.1362 20.684C15.1014 20.9988 14.8725 21.2578 14.5644 21.3311C13.1159 21.6757 11.6068 21.6757 10.1584 21.3311C9.85026 21.2578 9.6214 20.9988 9.58653 20.684L9.41771 19.1596C9.36812 18.7239 9.11469 18.3376 8.73478 18.1186C8.35486 17.8996 7.89356 17.8739 7.49255 18.049L6.08593 18.6652C5.79457 18.7929 5.45439 18.7229 5.23713 18.4905C4.22498 17.4081 3.47155 16.1101 3.03355 14.6944C2.93921 14.3895 3.04821 14.0582 3.3052 13.8689L4.54853 12.9529C4.90267 12.6927 5.11183 12.2795 5.11183 11.8401C5.11183 11.4006 4.90267 10.9874 4.54807 10.7269L3.30551 9.81245C3.04815 9.62305 2.93905 9.29138 3.03372 8.98618C3.47247 7.57175 4.2263 6.27524 5.23848 5.19422C5.45594 4.96196 5.79629 4.89219 6.0876 5.02016L7.48797 5.63532C7.89091 5.81216 8.35415 5.78545 8.73612 5.56229C9.11644 5.34169 9.36964 4.95382 9.41852 4.51724L9.5886 2.99156C9.62411 2.67295 9.85821 2.41214 10.1712 2.34254C10.8884 2.18302 11.6203 2.09825 12.3725 2.0896ZM12.3727 3.5895C11.9187 3.59484 11.4659 3.63403 11.0182 3.70661L10.9092 4.68378C10.8074 5.59328 10.2804 6.40062 9.49077 6.85863C8.69632 7.32277 7.72771 7.37863 6.88493 7.00877L5.98664 6.61416C5.41471 7.30833 4.95949 8.09095 4.63887 8.93128L5.43667 9.51839C6.17548 10.0612 6.61183 10.9233 6.61183 11.8401C6.61183 12.7568 6.17548 13.6189 5.43745 14.1611L4.6384 14.7498C4.95874 15.5916 5.41403 16.3757 5.98635 17.0712L6.89148 16.6747C7.72958 16.3088 8.69159 16.3623 9.48388 16.819C10.2762 17.2757 10.8047 18.0813 10.9083 18.9922L11.0173 19.9761C11.9069 20.1274 12.8158 20.1274 13.7055 19.9761L13.8144 18.9923C13.9152 18.0817 14.4431 17.2733 15.2363 16.8149C16.0296 16.3564 16.9935 16.3026 17.8332 16.6701L18.7376 17.0663C19.3094 16.3719 19.7645 15.5891 20.085 14.7486L19.2871 14.1607C18.5483 13.6179 18.1119 12.7558 18.1119 11.8391C18.1119 10.9223 18.5483 10.0602 19.2862 9.51807L20.083 8.93069C19.7624 8.09021 19.3071 7.30744 18.7351 6.61316L17.8386 7.00697C17.4733 7.16861 17.0781 7.2518 16.679 7.25118C15.2093 7.24964 13.9759 6.14315 13.8155 4.68343L13.7066 3.7063C13.261 3.6338 12.813 3.59472 12.3727 3.5895ZM12.36 8.08955C14.4311 8.08955 16.11 9.76848 16.11 11.8396C16.11 13.9106 14.4311 15.5896 12.36 15.5896C10.289 15.5896 8.61005 13.9106 8.61005 11.8396C8.61005 9.76848 10.289 8.08955 12.36 8.08955ZM12.36 9.58955C11.1174 9.58955 10.11 10.5969 10.11 11.8396C10.11 13.0822 11.1174 14.0896 12.36 14.0896C13.6027 14.0896 14.61 13.0822 14.61 11.8396C14.61 10.5969 13.6027 9.58955 12.36 9.58955Z" fill="white"/>
</svg>
